<svg width="38" height="38" viewBox="0 0 38 38" fill="none" xmlns="http://www.w3.org/2000/svg">
<path d="M14 32.2058C5.4 34.8618 5.4 27.4632 2 26.5146M26 36V29.3602C26 27.4632 26.2 26.7043 25 25.5661C30.6 24.997 36 22.9102 36 14.1836C35.9976 11.9165 35.0651 9.73936 33.4 8.11298C34.1809 6.14375 34.109 3.96147 33.2 2.04233C33.2 2.04233 31 1.47321 26.2 4.50853C22.1345 3.5042 17.8655 3.5042 13.8 4.50853C9 1.47321 6.8 2.04233 6.8 2.04233C5.89096 3.96147 5.81907 6.14375 6.6 8.11298C4.93491 9.73936 4.00244 11.9165 4 14.1836C4 22.9102 9.4 24.997 15 25.5661C13.8 26.7043 13.8 27.8426 14 29.3602V36" stroke="#9D5C63" stroke-width="3" stroke-linecap="round" stroke-linejoin="round"/>
</svg>
