<svg width="38" height="38" viewBox="0 0 38 38" fill="none" xmlns="http://www.w3.org/2000/svg">
<path d="M2 10.5C2 8.24566 2.89553 6.08365 4.48959 4.48959C6.08365 2.89553 8.24566 2 10.5 2H27.5C29.7543 2 31.9163 2.89553 33.5104 4.48959C35.1045 6.08365 36 8.24566 36 10.5V27.5C36 29.7543 35.1045 31.9163 33.5104 33.5104C31.9163 35.1045 29.7543 36 27.5 36H10.5C8.24566 36 6.08365 35.1045 4.48959 33.5104C2.89553 31.9163 2 29.7543 2 27.5V10.5Z" stroke="#9D5C63" stroke-width="3" stroke-linecap="round" stroke-linejoin="round"/>
<path d="M12.625 19C12.625 20.6908 13.2966 22.3123 14.4922 23.5078C15.6877 24.7034 17.3092 25.375 19 25.375C20.6908 25.375 22.3123 24.7034 23.5078 23.5078C24.7034 22.3123 25.375 20.6908 25.375 19C25.375 17.3092 24.7034 15.6877 23.5078 14.4922C22.3123 13.2966 20.6908 12.625 19 12.625C17.3092 12.625 15.6877 13.2966 14.4922 14.4922C13.2966 15.6877 12.625 17.3092 12.625 19Z" stroke="#9D5C63" stroke-width="3" stroke-linecap="round" stroke-linejoin="round"/>
<path d="M28.5625 9.4375V9.45875" stroke="#9D5C63" stroke-width="3" stroke-linecap="round" stroke-linejoin="round"/>
</svg>
