<svg width="38" height="38" viewBox="0 0 38 38" fill="none" xmlns="http://www.w3.org/2000/svg">
<path d="M2 6.25C2 5.12283 2.44777 4.04183 3.2448 3.2448C4.04183 2.44777 5.12283 2 6.25 2H31.75C32.8772 2 33.9582 2.44777 34.7552 3.2448C35.5522 4.04183 36 5.12283 36 6.25V31.75C36 32.8772 35.5522 33.9582 34.7552 34.7552C33.9582 35.5522 32.8772 36 31.75 36H6.25C5.12283 36 4.04183 35.5522 3.2448 34.7552C2.44777 33.9582 2 32.8772 2 31.75V6.25Z" stroke="#9D5C63" stroke-width="3" stroke-linecap="round" stroke-linejoin="round"/>
<path d="M10.5 16.875V27.5" stroke="#9D5C63" stroke-width="3" stroke-linecap="round" stroke-linejoin="round"/>
<path d="M10.5 10.5V10.5213" stroke="#9D5C63" stroke-width="3" stroke-linecap="round" stroke-linejoin="round"/>
<path d="M19 27.5V16.875" stroke="#9D5C63" stroke-width="3" stroke-linecap="round" stroke-linejoin="round"/>
<path d="M27.5 27.5V21.125C27.5 19.9978 27.0522 18.9168 26.2552 18.1198C25.4582 17.3228 24.3772 16.875 23.25 16.875C22.1228 16.875 21.0418 17.3228 20.2448 18.1198C19.4478 18.9168 19 19.9978 19 21.125" stroke="#9D5C63" stroke-width="3" stroke-linecap="round" stroke-linejoin="round"/>
</svg>
